<?xml version="1.0" encoding="utf-8"?>
<!-- Generator: Adobe Illustrator 22.1.0, SVG Export Plug-In . SVG Version: 6.00 Build 0)  -->
<svg version="1.1" id="Layer_1" xmlns="http://www.w3.org/2000/svg" xmlns:xlink="http://www.w3.org/1999/xlink" x="0px" y="0px"
	 width="113.3px" height="46.7px" viewBox="0 0 113.3 46.7" style="enable-background:new 0 0 113.3 46.7;" xml:space="preserve">
<style type="text/css">
	.st0{opacity:0.4;fill:#FFFFFF;enable-background:new    ;}
	.st1{fill:#FFFFFF;}
	.st2{opacity:0.6;}
	.st3{fill:#00ACC1;}
	.st4{fill:#0067AB;}
	.st5{fill:#757576;}
</style>
<g>
	<path class="st3" d="M28.1,17.8c-5.7,0-10.5,2.7-13.2,6.7c-0.5,1.8-0.1,3.7,1.3,5.1c1.9,1.9,4.9,2,7,0.4l3.2-3.2l0.4-0.4l0.2-0.1
		c0.6-0.5,1.4-0.7,2.3-0.7c2,0,3.6,1.6,3.6,3.6c0,0.7-0.2,1.3-0.5,1.8l0,0.1c-3.1,3.4-7.4,5.4-12.3,5.4c-2.7,0-5.1-0.6-7.4-1.7
		c1.1,8.8,8.4,11.9,9.3,11.9c1.1,0,3.2-1.2,3.2-3.6c0-4.2,2.8-5.2,4.4-5.2c4.8,0,9.7-2.7,9.7-8.8C39.3,23.4,34.7,17.8,28.1,17.8z"/>
	<path class="st4" d="M29.2,25.5c-0.9,0-1.6,0.2-2.3,0.7l-0.2,0.1l-0.4,0.4L23.1,30c-2.1,1.6-5.1,1.5-7-0.4
		c-1.4-1.4-1.8-3.3-1.3-5.1c0.1-0.4,4.9-5.6,4.9-5.6c1.3-1.4,2-3.3,2-5.3c0-4.4-3.6-7.9-7.9-7.9c-1.9,0-3.6,0.7-5,1.8L8.5,7.7
		c-3.2,3-5.3,7.2-5.3,12c0,6.6,3.8,12.3,9.3,15c2.2,1.1,4.7,1.7,7.4,1.7c4.9,0,9.3-2.1,12.3-5.4l0-0.1c0.3-0.5,0.5-1.1,0.5-1.8
		C32.8,27.1,31.2,25.5,29.2,25.5z"/>
	<path class="st4" d="M7.3,3.5c0-2-1.6-3.6-3.6-3.6C1.6-0.2,0,1.5,0,3.5c0,2,1.6,3.6,3.6,3.6C5.6,7.1,7.3,5.5,7.3,3.5z"/>
	<g>
		<path class="st5" d="M44.5,36.8V31h2.2c0.7,0,1.2,0.2,1.6,0.5c0.4,0.3,0.6,0.8,0.6,1.4c0,0.6-0.2,1.1-0.6,1.4s-1,0.5-1.6,0.5h-1.4
			v2H44.5z M45.2,34.2h1.4c0.5,0,0.9-0.1,1.2-0.4c0.3-0.2,0.4-0.5,0.4-0.9c0-0.4-0.1-0.7-0.4-0.9c-0.3-0.2-0.7-0.3-1.1-0.3h-1.5
			V34.2z"/>
		<path class="st5" d="M52.3,36.8V31h2.5c0.7,0,1.3,0.2,1.6,0.6c0.3,0.3,0.4,0.7,0.4,1.2c0,0.5-0.1,0.8-0.4,1.1
			c-0.3,0.3-0.7,0.5-1.1,0.6l1.8,2.4h-0.8l-1.7-2.3h-1.7v2.3H52.3z M52.9,34h1.8c0.4,0,0.8-0.1,1.1-0.3c0.3-0.2,0.4-0.5,0.4-0.9
			c0-0.4-0.1-0.6-0.4-0.8s-0.6-0.3-1.1-0.3h-1.8V34z"/>
		<path class="st5" d="M60.5,36.8V31h0.7v5.8H60.5z"/>
		<path class="st5" d="M65.1,36.8V31h0.7l2.1,3.2L70,31h0.7v5.8H70v-4.7l-2.1,3.1h0l-2.1-3.1v4.7H65.1z"/>
		<path class="st5" d="M74,36.8l2.6-5.8h0.6l2.6,5.8h-0.7l-0.7-1.5h-3.2l-0.7,1.5H74z M75.6,34.7h2.6l-1.3-3L75.6,34.7z"/>
		<path class="st5" d="M84,36.8v-5.2h-1.9V31h4.6v0.6h-1.9v5.2H84z"/>
		<path class="st5" d="M88.9,36.8l2.6-5.8h0.6l2.6,5.8H94l-0.7-1.5h-3.2l-0.7,1.5H88.9z M90.5,34.7h2.6l-1.3-3L90.5,34.7z"/>
		<path class="st5" d="M98.1,36.8V31h0.7l2.1,3.2L103,31h0.7v5.8H103v-4.7l-2.1,3.1h0l-2.1-3.1v4.7H98.1z"/>
		<path class="st5" d="M107,36.8l2.6-5.8h0.6l2.6,5.8h-0.7l-0.7-1.5h-3.2l-0.7,1.5H107z M108.6,34.7h2.6l-1.3-3L108.6,34.7z"/>
	</g>
	<g>
		<path d="M48.2,27.7c-1.1,0-2.1-0.4-2.8-1.1c-0.8-0.8-1.1-1.7-1.1-2.8c0-1.1,0.4-2.1,1.1-2.8c0.8-0.8,1.7-1.2,2.9-1.2
			c0.7,0,1.2,0.1,1.7,0.3c0.5,0.2,0.9,0.5,1.3,0.9l-1,1.2c-0.3-0.3-0.6-0.5-0.9-0.7c-0.3-0.1-0.6-0.2-1-0.2c-0.6,0-1.2,0.2-1.6,0.7
			c-0.4,0.5-0.6,1-0.6,1.7c0,0.7,0.2,1.2,0.6,1.7c0.4,0.5,1,0.7,1.6,0.7c0.4,0,0.8-0.1,1.1-0.2s0.6-0.4,1-0.7l1.1,1.2
			c-0.4,0.4-0.9,0.8-1.4,1S48.9,27.7,48.2,27.7z"/>
		<path d="M54.9,27.6v-3l-3-4.7h2l1.8,3.1l1.9-3.1h1.9l-3,4.6v3.1H54.9z"/>
		<path d="M60.7,27.6v-7.7h3.6c0.9,0,1.6,0.2,2,0.7c0.4,0.4,0.5,0.8,0.5,1.3c0,0.7-0.3,1.3-1,1.7c0.5,0.2,0.8,0.4,1.1,0.7
			c0.2,0.3,0.4,0.7,0.4,1.2c0,0.7-0.3,1.2-0.8,1.6s-1.2,0.5-2.1,0.5H60.7z M62.3,23h1.6c0.8,0,1.2-0.3,1.2-0.8
			c0-0.3-0.1-0.5-0.3-0.6c-0.2-0.1-0.5-0.2-0.8-0.2h-1.7V23z M62.3,26.1h2c0.8,0,1.2-0.3,1.2-0.9c0-0.6-0.4-0.8-1.3-0.8h-2V26.1z"/>
		<path d="M68.7,27.6v-7.7h5.8v1.5h-4.1V23H74v1.5h-3.6v1.6h4.2v1.5H68.7z"/>
		<path d="M76.2,27.6v-7.7h3.5c1,0,1.7,0.3,2.2,0.8c0.4,0.4,0.7,1,0.7,1.8c0,1.2-0.5,2-1.6,2.4l1.9,2.7h-2l-1.7-2.5h-1.3v2.5H76.2z
			 M77.9,23.6h1.7c0.4,0,0.7-0.1,1-0.3s0.3-0.5,0.3-0.8c0-0.4-0.1-0.6-0.4-0.8c-0.2-0.2-0.6-0.3-1-0.3h-1.7V23.6z"/>
		<path d="M84.3,27.6v-7.7H86v7.7H84.3z"/>
		<path d="M88,27.6v-7.7h1.6l3.6,4.7v-4.7h1.7v7.7h-1.4l-3.7-4.9v4.9H88z"/>
		<path d="M96.8,27.6v-7.7h3c1.2,0,2.2,0.4,2.9,1.1c0.8,0.7,1.1,1.6,1.1,2.7c0,1.1-0.4,2-1.1,2.7c-0.8,0.7-1.7,1.1-2.9,1.1H96.8z
			 M98.5,26h1.3c0.7,0,1.3-0.2,1.7-0.6c0.4-0.4,0.6-1,0.6-1.7c0-0.7-0.2-1.2-0.6-1.7c-0.4-0.4-1-0.6-1.7-0.6h-1.3V26z"/>
		<path d="M112.1,26.5c-0.8,0.8-1.8,1.2-2.9,1.2s-2.1-0.4-2.9-1.2s-1.2-1.7-1.2-2.8c0-1.1,0.4-2,1.2-2.8s1.8-1.2,2.9-1.2
			c1.2,0,2.1,0.4,2.9,1.2c0.8,0.8,1.2,1.7,1.2,2.8C113.3,24.8,112.9,25.8,112.1,26.5z M107.6,25.4c0.4,0.5,1,0.7,1.7,0.7
			s1.2-0.2,1.7-0.7c0.4-0.5,0.6-1,0.6-1.7c0-0.7-0.2-1.2-0.7-1.7c-0.4-0.5-1-0.7-1.7-0.7s-1.2,0.2-1.7,0.7c-0.4,0.5-0.6,1-0.6,1.7
			C106.9,24.4,107.1,25,107.6,25.4z"/>
	</g>
</g>
</svg>
