<?xml version="1.0" encoding="utf-8"?>
<!-- Generator: Adobe Illustrator 22.1.0, SVG Export Plug-In . SVG Version: 6.00 Build 0)  -->
<svg version="1.1" id="Layer_1" xmlns="http://www.w3.org/2000/svg" xmlns:xlink="http://www.w3.org/1999/xlink" x="0px" y="0px"
	 width="113.3px" height="46.7px" viewBox="0 0 113.3 46.7" style="enable-background:new 0 0 113.3 46.7;" xml:space="preserve">
<style type="text/css">
	.st0{opacity:0.4;fill:#FFFFFF;}
	.st1{fill:#FFFFFF;}
	.st2{opacity:0.6;}
</style>
<g>
	<path class="st0" d="M28.1,18c-5.7,0-10.5,2.7-13.2,6.7c-0.5,1.8-0.1,3.7,1.3,5.1c1.9,1.9,4.9,2,7,0.4l3.2-3.2l0.4-0.4l0.2-0.1
		c0.6-0.5,1.4-0.7,2.3-0.7c2,0,3.6,1.6,3.6,3.6c0,0.7-0.2,1.3-0.5,1.8l0,0.1c-3.1,3.4-7.4,5.4-12.3,5.4c-2.7,0-5.1-0.6-7.4-1.7
		c1.1,8.8,8.4,11.9,9.3,11.9c1.1,0,3.2-1.2,3.2-3.6c0-4.2,2.8-5.2,4.4-5.2c4.8,0,9.7-2.7,9.7-8.8C39.3,23.5,34.7,18,28.1,18z"/>
	<path class="st1" d="M29.2,25.7c-0.9,0-1.6,0.2-2.3,0.7l-0.2,0.1l-0.4,0.4l-3.2,3.2c-2.1,1.6-5.1,1.5-7-0.4
		c-1.4-1.4-1.8-3.3-1.3-5.1c0.1-0.4,4.9-5.6,4.9-5.6c1.3-1.4,2-3.3,2-5.3c0-4.4-3.6-7.9-7.9-7.9c-1.9,0-3.6,0.7-5,1.8L8.5,7.9
		c-3.2,3-5.3,7.2-5.3,12c0,6.6,3.8,12.3,9.3,15c2.2,1.1,4.7,1.7,7.4,1.7c4.9,0,9.3-2.1,12.3-5.4l0-0.1c0.3-0.5,0.5-1.1,0.5-1.8
		C32.8,27.3,31.2,25.7,29.2,25.7z"/>
	<path class="st1" d="M7.3,3.6c0-2-1.6-3.6-3.6-3.6C1.6,0,0,1.6,0,3.6c0,2,1.6,3.6,3.6,3.6C5.6,7.3,7.3,5.6,7.3,3.6z"/>
	<g class="st2">
		<path class="st1" d="M44.5,37v-5.8h2.2c0.7,0,1.2,0.2,1.6,0.5c0.4,0.3,0.6,0.8,0.6,1.4c0,0.6-0.2,1.1-0.6,1.4
			c-0.4,0.3-1,0.5-1.6,0.5h-1.4v2H44.5z M45.2,34.3h1.4c0.5,0,0.9-0.1,1.2-0.4c0.3-0.2,0.4-0.5,0.4-0.9c0-0.4-0.1-0.7-0.4-0.9
			c-0.3-0.2-0.7-0.3-1.1-0.3h-1.5V34.3z"/>
		<path class="st1" d="M52.3,37v-5.8h2.5c0.7,0,1.3,0.2,1.6,0.6c0.3,0.3,0.4,0.7,0.4,1.2c0,0.5-0.1,0.8-0.4,1.1
			c-0.3,0.3-0.7,0.5-1.1,0.6l1.8,2.4h-0.8l-1.7-2.3h-1.7V37H52.3z M52.9,34.1h1.8c0.4,0,0.8-0.1,1.1-0.3s0.4-0.5,0.4-0.9
			c0-0.4-0.1-0.6-0.4-0.8c-0.3-0.2-0.6-0.3-1.1-0.3h-1.8V34.1z"/>
		<path class="st1" d="M60.5,37v-5.8h0.7V37H60.5z"/>
		<path class="st1" d="M65.1,37v-5.8h0.7l2.1,3.2l2.1-3.2h0.7V37H70v-4.7l-2.1,3.1h0l-2.1-3.1V37H65.1z"/>
		<path class="st1" d="M74,37l2.6-5.8h0.6l2.6,5.8h-0.7l-0.7-1.5h-3.2L74.7,37H74z M75.6,34.9h2.6l-1.3-3L75.6,34.9z"/>
		<path class="st1" d="M84,37v-5.2h-1.9v-0.6h4.6v0.6h-1.9V37H84z"/>
		<path class="st1" d="M88.9,37l2.6-5.8h0.6l2.6,5.8H94l-0.7-1.5h-3.2L89.5,37H88.9z M90.5,34.9h2.6l-1.3-3L90.5,34.9z"/>
		<path class="st1" d="M98.1,37v-5.8h0.7l2.1,3.2l2.1-3.2h0.7V37H103v-4.7l-2.1,3.1h0l-2.1-3.1V37H98.1z"/>
		<path class="st1" d="M107,37l2.6-5.8h0.6l2.6,5.8h-0.7l-0.7-1.5h-3.2l-0.7,1.5H107z M108.6,34.9h2.6l-1.3-3L108.6,34.9z"/>
	</g>
	<g>
		<path class="st1" d="M48.2,27.9c-1.1,0-2.1-0.4-2.8-1.1c-0.8-0.8-1.1-1.7-1.1-2.8c0-1.1,0.4-2.1,1.1-2.8c0.8-0.8,1.7-1.2,2.9-1.2
			c0.7,0,1.2,0.1,1.7,0.3c0.5,0.2,0.9,0.5,1.3,0.9l-1,1.2c-0.3-0.3-0.6-0.5-0.9-0.7c-0.3-0.1-0.6-0.2-1-0.2c-0.6,0-1.2,0.2-1.6,0.7
			c-0.4,0.5-0.6,1-0.6,1.7c0,0.7,0.2,1.2,0.6,1.7c0.4,0.5,1,0.7,1.6,0.7c0.4,0,0.8-0.1,1.1-0.2s0.6-0.4,1-0.7l1.1,1.2
			c-0.4,0.4-0.9,0.8-1.4,1S48.9,27.9,48.2,27.9z"/>
		<path class="st1" d="M54.9,27.7v-3l-3-4.7h2l1.8,3.1l1.9-3.1h1.9l-3,4.6v3.1H54.9z"/>
		<path class="st1" d="M60.7,27.7v-7.7h3.6c0.9,0,1.6,0.2,2,0.7c0.4,0.4,0.5,0.8,0.5,1.3c0,0.7-0.3,1.3-1,1.7
			c0.5,0.2,0.8,0.4,1.1,0.7c0.2,0.3,0.4,0.7,0.4,1.2c0,0.7-0.3,1.2-0.8,1.6c-0.5,0.4-1.2,0.5-2.1,0.5H60.7z M62.3,23.2h1.6
			c0.8,0,1.2-0.3,1.2-0.8c0-0.3-0.1-0.5-0.3-0.6c-0.2-0.1-0.5-0.2-0.8-0.2h-1.7V23.2z M62.3,26.2h2c0.8,0,1.2-0.3,1.2-0.9
			c0-0.6-0.4-0.8-1.3-0.8h-2V26.2z"/>
		<path class="st1" d="M68.7,27.7v-7.7h5.8v1.5h-4.1v1.6H74v1.5h-3.6v1.6h4.2v1.5H68.7z"/>
		<path class="st1" d="M76.2,27.7v-7.7h3.5c1,0,1.7,0.3,2.2,0.8c0.4,0.4,0.7,1,0.7,1.8c0,1.2-0.5,2-1.6,2.4l1.9,2.7h-2l-1.7-2.5
			h-1.3v2.5H76.2z M77.9,23.8h1.7c0.4,0,0.7-0.1,1-0.3c0.2-0.2,0.3-0.5,0.3-0.8c0-0.4-0.1-0.6-0.4-0.8s-0.6-0.3-1-0.3h-1.7V23.8z"/>
		<path class="st1" d="M84.3,27.7v-7.7H86v7.7H84.3z"/>
		<path class="st1" d="M88,27.7v-7.7h1.6l3.6,4.7v-4.7h1.7v7.7h-1.4l-3.7-4.9v4.9H88z"/>
		<path class="st1" d="M96.8,27.7v-7.7h3c1.2,0,2.2,0.4,2.9,1.1c0.8,0.7,1.1,1.6,1.1,2.7c0,1.1-0.4,2-1.1,2.7
			c-0.8,0.7-1.7,1.1-2.9,1.1H96.8z M98.5,26.2h1.3c0.7,0,1.3-0.2,1.7-0.6s0.6-1,0.6-1.7c0-0.7-0.2-1.2-0.6-1.7
			c-0.4-0.4-1-0.6-1.7-0.6h-1.3V26.2z"/>
		<path class="st1" d="M112.1,26.7c-0.8,0.8-1.8,1.2-2.9,1.2c-1.2,0-2.1-0.4-2.9-1.2c-0.8-0.8-1.2-1.7-1.2-2.8c0-1.1,0.4-2,1.2-2.8
			c0.8-0.8,1.8-1.2,2.9-1.2c1.2,0,2.1,0.4,2.9,1.2c0.8,0.8,1.2,1.7,1.2,2.8C113.3,25,112.9,25.9,112.1,26.7z M107.6,25.6
			c0.4,0.5,1,0.7,1.7,0.7s1.2-0.2,1.7-0.7c0.4-0.5,0.6-1,0.6-1.7c0-0.7-0.2-1.2-0.7-1.7c-0.4-0.5-1-0.7-1.7-0.7s-1.2,0.2-1.7,0.7
			c-0.4,0.5-0.6,1-0.6,1.7C106.9,24.6,107.1,25.1,107.6,25.6z"/>
	</g>
</g>
</svg>
