<svg version="1.1" id="Layer_1" xmlns="http://www.w3.org/2000/svg" x="0" y="0" width="113.3" height="46.7" xml:space="preserve"><style>.st1{fill:#fff}</style><path d="M28.1 18c-5.7 0-10.5 2.7-13.2 6.7-.5 1.8-.1 3.7 1.3 5.1 1.9 1.9 4.9 2 7 .4l3.2-3.2.4-.4.2-.1c.6-.5 1.4-.7 2.3-.7 2 0 3.6 1.6 3.6 3.6 0 .7-.2 1.3-.5 1.8v.1c-3.1 3.4-7.4 5.4-12.3 5.4-2.7 0-5.1-.6-7.4-1.7 1.1 8.8 8.4 11.9 9.3 11.9 1.1 0 3.2-1.2 3.2-3.6 0-4.2 2.8-5.2 4.4-5.2 4.8 0 9.7-2.7 9.7-8.8 0-5.8-4.6-11.3-11.2-11.3z" opacity=".4" fill="#fff"/><path class="st1" d="M29.2 25.7c-.9 0-1.6.2-2.3.7l-.2.1-.4.4-3.2 3.2c-2.1 1.6-5.1 1.5-7-.4-1.4-1.4-1.8-3.3-1.3-5.1.1-.4 4.9-5.6 4.9-5.6 1.3-1.4 2-3.3 2-5.3 0-4.4-3.6-7.9-7.9-7.9-1.9 0-3.6.7-5 1.8l-.3.3c-3.2 3-5.3 7.2-5.3 12 0 6.6 3.8 12.3 9.3 15 2.2 1.1 4.7 1.7 7.4 1.7 4.9 0 9.3-2.1 12.3-5.4v-.1c.3-.5.5-1.1.5-1.8.1-2-1.5-3.6-3.5-3.6zM7.3 3.6c0-2-1.6-3.6-3.6-3.6C1.6 0 0 1.6 0 3.6s1.6 3.6 3.6 3.6c2 .1 3.7-1.6 3.7-3.6z"/><path class="st1" d="M44.5 37v-5.8h2.2c.7 0 1.2.2 1.6.5.4.3.6.8.6 1.4 0 .6-.2 1.1-.6 1.4-.4.3-1 .5-1.6.5h-1.4v2h-.8zm.7-2.7h1.4c.5 0 .9-.1 1.2-.4.3-.2.4-.5.4-.9s-.1-.7-.4-.9c-.3-.2-.7-.3-1.1-.3h-1.5v2.5zm7.1 2.7v-5.8h2.5c.7 0 1.3.2 1.6.6.3.3.4.7.4 1.2s-.1.8-.4 1.1c-.3.3-.7.5-1.1.6l1.8 2.4h-.8l-1.7-2.3h-1.7V37h-.6zm.6-2.9h1.8c.4 0 .8-.1 1.1-.3s.4-.5.4-.9-.1-.6-.4-.8c-.3-.2-.6-.3-1.1-.3h-1.8v2.3zm7.6 2.9v-5.8h.7V37h-.7zm4.6 0v-5.8h.7l2.1 3.2 2.1-3.2h.7V37H70v-4.7l-2.1 3.1-2.1-3.1V37h-.7zm8.9 0l2.6-5.8h.6l2.6 5.8h-.7l-.7-1.5h-3.2l-.5 1.5H74zm1.6-2.1h2.6l-1.3-3-1.3 3zM84 37v-5.2h-1.9v-.6h4.6v.6h-1.9V37H84zm4.9 0l2.6-5.8h.6l2.6 5.8H94l-.7-1.5h-3.2l-.6 1.5h-.6zm1.6-2.1h2.6l-1.3-3-1.3 3zm7.6 2.1v-5.8h.7l2.1 3.2 2.1-3.2h.7V37h-.7v-4.7l-2.1 3.1-2.1-3.1V37h-.7zm8.9 0l2.6-5.8h.6l2.6 5.8h-.7l-.7-1.5h-3.2l-.7 1.5h-.5zm1.6-2.1h2.6l-1.3-3-1.3 3z" opacity=".6"/><path class="st1" d="M48.2 27.9c-1.1 0-2.1-.4-2.8-1.1-.8-.8-1.1-1.7-1.1-2.8 0-1.1.4-2.1 1.1-2.8.8-.8 1.7-1.2 2.9-1.2.7 0 1.2.1 1.7.3.5.2.9.5 1.3.9l-1 1.2c-.3-.3-.6-.5-.9-.7-.3-.1-.6-.2-1-.2-.6 0-1.2.2-1.6.7-.4.5-.6 1-.6 1.7s.2 1.2.6 1.7c.4.5 1 .7 1.6.7.4 0 .8-.1 1.1-.2s.6-.4 1-.7l1.1 1.2c-.4.4-.9.8-1.4 1s-1.3.3-2 .3zm6.7-.2v-3l-3-4.7h2l1.8 3.1 1.9-3.1h1.9l-3 4.6v3.1h-1.6zm5.8 0V20h3.6c.9 0 1.6.2 2 .7.4.4.5.8.5 1.3 0 .7-.3 1.3-1 1.7.5.2.8.4 1.1.7.2.3.4.7.4 1.2 0 .7-.3 1.2-.8 1.6-.5.4-1.2.5-2.1.5h-3.7zm1.6-4.5h1.6c.8 0 1.2-.3 1.2-.8 0-.3-.1-.5-.3-.6-.2-.1-.5-.2-.8-.2h-1.7v1.6zm0 3h2c.8 0 1.2-.3 1.2-.9 0-.6-.4-.8-1.3-.8h-2v1.7zm6.4 1.5V20h5.8v1.5h-4.1v1.6H74v1.5h-3.6v1.6h4.2v1.5h-5.9zm7.5 0V20h3.5c1 0 1.7.3 2.2.8.4.4.7 1 .7 1.8 0 1.2-.5 2-1.6 2.4l1.9 2.7h-2l-1.7-2.5h-1.3v2.5h-1.7zm1.7-3.9h1.7c.4 0 .7-.1 1-.3.2-.2.3-.5.3-.8 0-.4-.1-.6-.4-.8s-.6-.3-1-.3h-1.7v2.2zm6.4 3.9V20H86v7.7h-1.7zm3.7 0V20h1.6l3.6 4.7V20h1.7v7.7h-1.4l-3.7-4.9v4.9H88zm8.8 0V20h3c1.2 0 2.2.4 2.9 1.1.8.7 1.1 1.6 1.1 2.7s-.4 2-1.1 2.7c-.8.7-1.7 1.1-2.9 1.1h-3zm1.7-1.5h1.3c.7 0 1.3-.2 1.7-.6s.6-1 .6-1.7-.2-1.2-.6-1.7c-.4-.4-1-.6-1.7-.6h-1.3v4.6zm13.6.5c-.8.8-1.8 1.2-2.9 1.2-1.2 0-2.1-.4-2.9-1.2-.8-.8-1.2-1.7-1.2-2.8 0-1.1.4-2 1.2-2.8.8-.8 1.8-1.2 2.9-1.2 1.2 0 2.1.4 2.9 1.2.8.8 1.2 1.7 1.2 2.8 0 1.1-.4 2-1.2 2.8zm-4.5-1.1c.4.5 1 .7 1.7.7s1.2-.2 1.7-.7c.4-.5.6-1 .6-1.7s-.2-1.2-.7-1.7c-.4-.5-1-.7-1.7-.7s-1.2.2-1.7.7c-.4.5-.6 1-.6 1.7s.2 1.2.7 1.7z"/></svg>