<svg width="194" height="144" xmlns="http://www.w3.org/2000/svg" xmlns:xlink="http://www.w3.org/1999/xlink"><svg width="26" height="26" id="checked" x="96.6" y="80" xmlns="http://www.w3.org/2000/svg"><path d="M.3 14c-.2-.2-.3-.5-.3-.7s.1-.5.3-.7l1.4-1.4c.4-.4 1-.4 1.4 0l.1.1 5.5 5.9c.2.2.5.2.7 0L22.8 3.3h.1c.4-.4 1-.4 1.4 0l1.4 1.4c.4.4.4 1 0 1.4l-16 16.6c-.2.2-.4.3-.7.3-.3 0-.5-.1-.7-.3L.5 14.3.3 14z"/></svg><svg data-name="Layer 1" width="16" height="16" id="chevron-down-white-custom" x="32" y="120" xmlns="http://www.w3.org/2000/svg"><path fill="none" stroke="#fff" stroke-miterlimit="10" d="M3.5 6.5L8 11l4.5-4.5"/></svg><svg width="24" height="24" fill="none" stroke="currentColor" stroke-width="2" stroke-linecap="round" stroke-linejoin="round" class="cfeather cfeather-eye" id="eye" x="122.6" y="80" xmlns="http://www.w3.org/2000/svg"><path d="M1 12s4-8 11-8 11 8 11 8-4 8-11 8-11-8-11-8z"/><circle cx="12" cy="12" r="3"/></svg><svg width="24" height="24" fill="none" stroke="currentColor" stroke-width="2" stroke-linecap="round" stroke-linejoin="round" class="dfeather dfeather-eye-off" id="eye-off" x="146.6" y="80" xmlns="http://www.w3.org/2000/svg"><path d="M17.94 17.94A10.07 10.07 0 0112 20c-7 0-11-8-11-8a18.45 18.45 0 015.06-5.94M9.9 4.24A9.12 9.12 0 0112 4c7 0 11 8 11 8a18.5 18.5 0 01-2.16 3.19m-6.72-1.07a3 3 0 11-4.24-4.24M1 1l22 22"/></svg><svg version="1.1" id="indonesia" x="170.6" y="80" width="16" height="24" xml:space="preserve" xmlns="http://www.w3.org/2000/svg"><path d="M16 12H0V7c0-.2.1-.3.3-.3h15.4c.2.1.3.2.3.3v5z" fill="#c8414b"/><path d="M0 12h16v5c0 .2-.1.3-.3.3H.3c-.2-.1-.3-.2-.3-.3v-5z" fill="#f5f5f5"/></svg><svg id="new-cp-logo-white" data-name="Layer 1" width="96.6" height="40" y="80" xmlns="http://www.w3.org/2000/svg"><defs><style>.fcls-2{fill:#fff}</style></defs><path d="M24 15.4a13.5 13.5 0 00-11.3 5.7 4.3 4.3 0 001.1 4.3 4.7 4.7 0 006 .4l2.7-2.8.4-.3h.1a3.2 3.2 0 012-.6 3.1 3.1 0 013.1 3.1 2.5 2.5 0 01-.5 1.5 13.9 13.9 0 01-10.5 4.6 14.9 14.9 0 01-6.3-1.4c1 7.5 7.2 10.1 8 10.1a3.1 3.1 0 002.7-3.1c0-3.6 2.4-4.4 3.7-4.4 4.1 0 8.3-2.3 8.3-7.5a9.5 9.5 0 00-9.5-9.6z" style="isolation:isolate" opacity=".4" fill="#fff"/><path class="fcls-2" d="M24.9 21.9a3.4 3.4 0 00-2 .6h-.1l-.4.3-2.7 2.8a4.6 4.6 0 01-6-.4 4.3 4.3 0 01-1.1-4.2c.1-.4 4.2-4.8 4.2-4.8a6.6 6.6 0 001.7-4.5 6.8 6.8 0 00-6.7-6.8 6.5 6.5 0 00-4.3 1.6l-.3.2a14.2 14.2 0 1020.3 19.9 3.3 3.3 0 00.4-1.5 3 3 0 00-3-3.2zM6.2 3.1a3 3 0 00-3-3.1A3.1 3.1 0 000 3.1a3 3 0 003.1 3 3 3 0 003.1-3z"/><path class="fcls-2" d="M38 31.6v-5h1.8a2.6 2.6 0 011.4.4 1.7 1.7 0 01.5 1.2 1.5 1.5 0 01-.5 1.2 2.2 2.2 0 01-1.4.5h-1.2v1.7zm.6-2.3h1.1a1.4 1.4 0 001.1-.4 1 1 0 00.3-.8.8.8 0 00-.3-.7 1.7 1.7 0 00-1-.3h-1.2zm6 2.3v-5h2.1a2 2 0 011.4.5 1.2 1.2 0 01.3 1c0 .5 0 .7-.3 1l-.9.5 1.5 2H48l-1.4-1.9h-1.5v1.9zm.5-2.5h1.6l.9-.3a.8.8 0 00.3-.7c0-.4-.1-.6-.3-.7a1.4 1.4 0 00-.9-.3h-1.6zm6.5 2.5v-5h.6v5zm3.9 0v-5h.6l1.8 2.7 1.8-2.7h.6v5h-.6v-4.1l-1.8 2.7-1.8-2.7v4.1zm7.6 0l2.2-5h.5l2.3 5h-.6l-.6-1.3h-2.8l-.4 1.3zm1.4-1.8h2.2l-1.1-2.6zm7.1 1.8v-4.5H70v-.5h3.9v.5h-1.6v4.5zm4.2 0l2.2-5h.6l2.2 5h-.6l-.6-1.3h-2.8l-.5 1.3zm1.4-1.8h2.2l-1.1-2.6zm6.5 1.8v-5h.6l1.8 2.7 1.7-2.7h.6v5h-.6v-4.1l-1.7 2.7-1.8-2.7v4.1zm7.6 0l2.2-5h.5l2.2 5h-.6l-.6-1.3h-2.7l-.6 1.3zm1.3-1.8h2.2l-1.1-2.6z" opacity=".6"/><path class="fcls-2" d="M41.1 23.8a3.4 3.4 0 01-2.4-.9 3.2 3.2 0 01-.9-2.4 3.2 3.2 0 01.9-2.4 3.3 3.3 0 012.5-1 3 3 0 011.4.2 3.2 3.2 0 011.2.8l-.9 1-.8-.6-.8-.2a2 2 0 00-1.4.6 2.7 2.7 0 00-.5 1.5 2.2 2.2 0 00.5 1.4 1.6 1.6 0 001.4.6h.9l.9-.6.9 1a3.2 3.2 0 01-1.2.8 4.3 4.3 0 01-1.7.2zm5.7-.2v-2.5l-2.5-4H46l1.5 2.6 1.6-2.6h1.6L48.2 21v2.6zm5 0v-6.5h3c.8 0 1.4.1 1.7.6a1.2 1.2 0 01.5 1.1 1.5 1.5 0 01-.9 1.4l1 .6a2.9 2.9 0 01.3 1 1.7 1.7 0 01-.7 1.4 3 3 0 01-1.8.4zm1.3-3.8h1.4c.7 0 1-.3 1-.7a.6.6 0 00-.2-.5l-.7-.2h-1.5zm0 2.5h1.7c.7 0 1.1-.2 1.1-.7s-.4-.7-1.1-.7H53v1.4zm5.5 1.3v-6.5h4.9v1.2H60v1.4h3.1V21H60v1.3h3.6v1.3zm6.4 0v-6.5h3a2.9 2.9 0 011.9.6 2.5 2.5 0 01.5 1.6 1.9 1.9 0 01-1.3 2l1.6 2.3H69l-1.5-2.1h-1.1v2.1zm1.4-3.3h1.5a1.1 1.1 0 00.8-.3.7.7 0 00.3-.6c0-.4-.1-.6-.3-.7a1.6 1.6 0 00-.9-.3h-1.4v1.9zm5.5 3.3v-6.5h1.4v6.5zm3.2 0v-6.5h1.3l3.1 4v-4h1.4v6.5h-1.2l-3.1-4.2v4.2zm7.5 0v-6.5h2.5a3.5 3.5 0 012.5.9 2.8 2.8 0 01.9 2.3 3.2 3.2 0 01-.9 2.3 3.7 3.7 0 01-2.5.9h-2.5zm1.4-1.3h1.1a1.8 1.8 0 002-1.9 2.7 2.7 0 00-.5-1.5 2.5 2.5 0 00-1.5-.5H84zm11.6.5a3.3 3.3 0 01-2.5 1 3 3 0 01-2.4-1 3.4 3.4 0 01-1.1-2.4 3.2 3.2 0 011.1-2.4 3.1 3.1 0 012.4-1 3.2 3.2 0 012.5 1 3.1 3.1 0 011 2.4 3.3 3.3 0 01-1 2.4zm-3.8-1a1.4 1.4 0 001.4.6 1.8 1.8 0 001.5-.6 2.2 2.2 0 00.5-1.4 2.2 2.2 0 00-.6-1.5 2 2 0 00-1.5-.6 1.8 1.8 0 00-1.4.6 2.1 2.1 0 00-.5 1.5 1.5 1.5 0 00.6 1.4z"/></svg><svg data-name="Layer 1" width="193.2" height="80" id="new-cp-logo-white-big" xmlns="http://www.w3.org/2000/svg"><path d="M48 30.8a27 27 0 00-22.6 11.4 8.5 8.5 0 002.2 8.6 9.4 9.4 0 0012 .8L45 46l.8-.6h.2a6.5 6.5 0 014-1.2 6.2 6.2 0 016.2 6.2 5.4 5.4 0 01-1 3 28 28 0 01-21 9.2 30.1 30.1 0 01-12.6-2.8c2 15 14.4 20.2 16 20.2a6.3 6.3 0 005.4-6.2c0-7.2 4.8-8.8 7.4-8.8C58.6 65 67 60.4 67 50a19 19 0 00-18.8-19.2z" style="isolation:isolate" fill="#fff" opacity=".4"/><path d="M49.8 43.8a7.2 7.2 0 00-4 1.2h-.2l-.8.6-5.4 5.6a9.3 9.3 0 01-12-.8 8.7 8.7 0 01-2.2-8.4c.2-.8 8.4-9.6 8.4-9.6a13.6 13.6 0 00-10-22.6A12.9 12.9 0 0015 13l-.6.4A28.4 28.4 0 1055 53.2a6.1 6.1 0 00.8-3 6 6 0 00-5.6-6.4zM12.4 6.2A6 6 0 006.6 0h-.2A6.2 6.2 0 000 6v.2a6 6 0 006 6h.2a6 6 0 006.2-5.8z" fill="#fff"/><path d="M76 63.2v-10h3.6a5.4 5.4 0 012.8.8 3.5 3.5 0 011 2.4 3.1 3.1 0 01-1 2.4 4.8 4.8 0 01-2.8 1h-2.4v3.4zm1.2-4.6h2.2a2.7 2.7 0 002.2-.8 2.3 2.3 0 00.6-1.6 1.8 1.8 0 00-.6-1.4 3.6 3.6 0 00-2-.6h-2.4zm12 4.6v-10h4.2a4.2 4.2 0 012.8 1 2.4 2.4 0 01.6 2c0 1 0 1.4-.6 2l-1.8 1 3 4H96l-2.8-3.8h-3v3.8zm1-5h3.2l1.8-.6a1.8 1.8 0 00.6-1.4c0-.8-.2-1.2-.6-1.4a3 3 0 00-1.8-.6h-3.2zm13 5v-10h1.2v10zm7.8 0v-10h1.2l3.6 5.4 3.6-5.4h1.2v10h-1.2V55l-3.6 5.4-3.6-5.4v8.2zm15.2 0l4.4-10h1l4.6 10H135l-1.2-2.6h-5.6l-.8 2.6zm2.8-3.6h4.4l-2.2-5.2zm14.2 3.6v-9H140v-1h7.8v1h-3.2v9zm8.4 0l4.4-10h1.2l4.4 10h-1.2l-1.2-2.6h-5.6l-1 2.6zm2.8-3.6h4.4l-2.2-5.2zm13 3.6v-10h1.2l3.6 5.4 3.4-5.4h1.2v10h-1.2V55l-3.4 5.4-3.6-5.4v8.2zm15.2 0l4.4-10h1l4.4 10h-1.2l-1.2-2.6h-5.4l-1.2 2.6zm2.6-3.6h4.4l-2.2-5.2z" opacity=".6" fill="#fff"/><path d="M82.2 47.6a6.8 6.8 0 01-4.8-11.4 6.6 6.6 0 015-2 5.5 5.5 0 012.8.4 6.3 6.3 0 012.4 1.6l-1.8 2-1.6-1.2-1.6-.4a3.6 3.6 0 00-2.8 1.2 5.4 5.4 0 00-1 3 4.2 4.2 0 001 2.8 3.3 3.3 0 002.8 1.2h1.8l1.8-1.2 1.8 2a6.3 6.3 0 01-2.4 1.6 8 8 0 01-3.4.4zm11.4-.4v-5l-5-8H92l3 5.2 3.2-5.2h3.2l-5 7.8v5.2zm10 0v-13h6c1.6 0 2.8.2 3.4 1.2a2.3 2.3 0 011 2.2 3.1 3.1 0 01-1.8 2.8l2 1.2a6.6 6.6 0 01.6 2 3.4 3.4 0 01-1.4 2.8 6.6 6.6 0 01-3.6.8zm2.6-7.6h2.8c1.4 0 2-.6 2-1.4a1.3 1.3 0 00-.4-1l-1.4-.4h-3zm0 5h3.4c1.4 0 2.2-.4 2.2-1.4s-.8-1.4-2.2-1.4H106v2.8zm11 2.6v-13h9.8v2.4h-7v2.8h6.2V42H120v2.6h7.2v2.6zm12.8 0v-13h6a5.8 5.8 0 013.8 1.2 5.3 5.3 0 011 3.2 3.8 3.8 0 01-2.6 4l3.2 4.6H138l-3-4.2h-2.2v4.2zm2.8-6.6h3a2.3 2.3 0 001.6-.6 1.4 1.4 0 00.6-1.2c0-.8-.2-1.2-.6-1.4a3 3 0 00-1.8-.6h-2.8zm11 6.6v-13h2.8v13zm6.4 0v-13h2.6l6.2 8v-8h2.8v13h-2.4l-6.2-8.4v8.4zm15 0v-13h5a7.2 7.2 0 015 1.8 5.8 5.8 0 011.8 4.6 6.5 6.5 0 01-1.8 4.6 7.7 7.7 0 01-5 1.8h-5zm2.8-2.6h2.2a3.6 3.6 0 004-3.2v-.6a5.4 5.4 0 00-1-3 5.4 5.4 0 00-3-1H168zm23.2 1a6.6 6.6 0 01-5 2 5.9 5.9 0 01-4.8-2 6.3 6.3 0 010-9.6 6.2 6.2 0 014.8-2 6.3 6.3 0 015 2 6.2 6.2 0 012 4.8 6.7 6.7 0 01-2 4.8zm-7.6-2a2.8 2.8 0 002.8 1.2 3.5 3.5 0 003-1.2 4.8 4.8 0 001-2.8 4.1 4.1 0 00-4.2-4.2 3.6 3.6 0 00-2.8 1.2 4.1 4.1 0 00-1 3 3 3 0 001.2 2.8z" fill="#fff"/></svg><svg id="republic-of-the-congo" data-name="Layer 1" width="16" height="24" y="120" xmlns="http://www.w3.org/2000/svg"><path d="M15.7 6.8h-4.4L.1 17.2h4.6L15.9 6.8z" fill="#ffe15a"/><path d="M11.3 6.8H.3c-.2 0-.3.1-.3.2v10a.3.3 0 00.1.2z" fill="#73af00"/><path d="M15.9 6.8L4.7 17.2h11c.2 0 .3-.1.3-.2V6.8z" fill="#ff4b55"/></svg><svg data-name="Layer 1" width="16" height="16" id="two-line-dark" x="48" y="120" xmlns="http://www.w3.org/2000/svg"><path fill="none" stroke="#555" stroke-linecap="round" stroke-linejoin="round" d="M2 6h12M2 10h12"/><path fill="none" d="M16 0v16H0V0"/></svg><svg id="united-kingdom" data-name="Layer 1" width="16" height="24" x="16" y="120" xmlns="http://www.w3.org/2000/svg"><defs><style>.jcls-3{fill:#ff4b55}</style></defs><path d="M15.7 17.2H.3c-.2 0-.3-.1-.3-.2V7c0-.1.1-.2.3-.2h15.4c.2 0 .3.1.3.2v10c0 .1-.1.2-.3.2z" fill="#41479b"/><path d="M16 7c0-.1-.1-.2-.3-.2h-1.2l-5.1 3.3V6.8H6.6v3.3L1.5 6.8H.3c-.2 0-.3.1-.3.2v.7l4.4 2.9H0v2.8h4.4L0 16.3v.7c0 .1.1.2.3.2h1.2l5.1-3.3v3.3h2.8v-3.3l5.1 3.3h1.2c.2 0 .3-.1.3-.2v-.7l-4.4-2.9H16v-2.8h-4.4L16 7.7z" fill="#f5f5f5"/><path class="jcls-3" d="M16 11.2H8.8V6.8H7.2v4.4H0v1.6h7.2v4.4h1.6v-4.4H16v-1.6z"/><path class="jcls-3" d="M5.6 13.4L0 17c0 .1.1.2.3.2h.4l5.9-3.8zm5.2 0h-1l6 3.8a.2.2 0 00.2-.2v-.3zM0 7.3l5.1 3.3h1L.2 6.8A.2.2 0 000 7zm10.4 3.3L16 7c0-.1-.1-.2-.3-.2h-.4l-5.9 3.8z"/></svg></svg>