<svg id="Layer_1" data-name="Layer 1" xmlns="http://www.w3.org/2000/svg" viewBox="0 0 96.6 40"><defs><style>.cls-1,.cls-2{fill:#fff;}.cls-1{opacity:0.4;isolation:isolate;}.cls-3{opacity:0.6;}</style></defs><title>new-cp-logo-white</title><path class="cls-1" d="M24,15.4a13.5,13.5,0,0,0-11.3,5.7,4.3,4.3,0,0,0,1.1,4.3,4.7,4.7,0,0,0,6,.4L22.5,23l.4-.3H23a3.2,3.2,0,0,1,2-.6,3.1,3.1,0,0,1,3.1,3.1,2.5,2.5,0,0,1-.5,1.5h0a13.9,13.9,0,0,1-10.5,4.6,14.9,14.9,0,0,1-6.3-1.4c1,7.5,7.2,10.1,8,10.1a3.1,3.1,0,0,0,2.7-3.1c0-3.6,2.4-4.4,3.7-4.4,4.1,0,8.3-2.3,8.3-7.5A9.5,9.5,0,0,0,24,15.4Z"/><path class="cls-2" d="M24.9,21.9a3.4,3.4,0,0,0-2,.6h-.1l-.4.3-2.7,2.8a4.6,4.6,0,0,1-6-.4A4.3,4.3,0,0,1,12.6,21c.1-.4,4.2-4.8,4.2-4.8a6.6,6.6,0,0,0,1.7-4.5,6.8,6.8,0,0,0-6.7-6.8A6.5,6.5,0,0,0,7.5,6.5l-.3.2A14.2,14.2,0,1,0,27.5,26.6h0a3.3,3.3,0,0,0,.4-1.5A3,3,0,0,0,24.9,21.9Z"/><path class="cls-2" d="M6.2,3.1A3,3,0,0,0,3.2,0,3.1,3.1,0,0,0,0,3.1a3,3,0,0,0,3.1,3A3,3,0,0,0,6.2,3.1Z"/><g class="cls-3"><path class="cls-2" d="M38,31.6v-5h1.8a2.6,2.6,0,0,1,1.4.4,1.7,1.7,0,0,1,.5,1.2,1.5,1.5,0,0,1-.5,1.2,2.2,2.2,0,0,1-1.4.5H38.6v1.7Zm.6-2.3h1.1a1.4,1.4,0,0,0,1.1-.4,1,1,0,0,0,.3-.8.8.8,0,0,0-.3-.7,1.7,1.7,0,0,0-1-.3H38.6Z"/><path class="cls-2" d="M44.6,31.6v-5h2.1a2,2,0,0,1,1.4.5,1.2,1.2,0,0,1,.3,1c0,.5,0,.7-.3,1l-.9.5,1.5,2H48l-1.4-1.9H45.1v1.9Zm.5-2.5h1.6l.9-.3a.8.8,0,0,0,.3-.7c0-.4-.1-.6-.3-.7a1.4,1.4,0,0,0-.9-.3H45.1Z"/><path class="cls-2" d="M51.6,31.6v-5h.6v5Z"/><path class="cls-2" d="M55.5,31.6v-5h.6l1.8,2.7,1.8-2.7h.6v5h-.6V27.5l-1.8,2.7h0l-1.8-2.7v4.1Z"/><path class="cls-2" d="M63.1,31.6l2.2-5h.5l2.3,5h-.6l-.6-1.3H64.1l-.4,1.3Zm1.4-1.8h2.2l-1.1-2.6Z"/><path class="cls-2" d="M71.6,31.6V27.1H70v-.5h3.9v.5H72.3v4.5Z"/><path class="cls-2" d="M75.8,31.6l2.2-5h.6l2.2,5h-.6l-.6-1.3H76.8l-.5,1.3Zm1.4-1.8h2.2l-1.1-2.6Z"/><path class="cls-2" d="M83.7,31.6v-5h.6l1.8,2.7,1.7-2.7h.6v5h-.6V27.5l-1.7,2.7h0l-1.8-2.7v4.1Z"/><path class="cls-2" d="M91.3,31.6l2.2-5H94l2.2,5h-.6L95,30.3H92.3l-.6,1.3Zm1.3-1.8h2.2l-1.1-2.6Z"/></g><path class="cls-2" d="M41.1,23.8a3.4,3.4,0,0,1-2.4-.9,3.2,3.2,0,0,1-.9-2.4,3.2,3.2,0,0,1,.9-2.4,3.3,3.3,0,0,1,2.5-1,3,3,0,0,1,1.4.2,3.2,3.2,0,0,1,1.2.8l-.9,1-.8-.6-.8-.2a2,2,0,0,0-1.4.6,2.7,2.7,0,0,0-.5,1.5,2.2,2.2,0,0,0,.5,1.4,1.6,1.6,0,0,0,1.4.6h.9l.9-.6.9,1a3.2,3.2,0,0,1-1.2.8A4.3,4.3,0,0,1,41.1,23.8Z"/><path class="cls-2" d="M46.8,23.6V21.1l-2.5-4H46l1.5,2.6,1.6-2.6h1.6L48.2,21v2.6Z"/><path class="cls-2" d="M51.8,23.6V17.1h3c.8,0,1.4.1,1.7.6a1.2,1.2,0,0,1,.5,1.1,1.5,1.5,0,0,1-.9,1.4l1,.6a2.9,2.9,0,0,1,.3,1,1.7,1.7,0,0,1-.7,1.4,3,3,0,0,1-1.8.4Zm1.3-3.8h1.4c.7,0,1-.3,1-.7a.6.6,0,0,0-.2-.5l-.7-.2H53.1Zm0,2.5h1.7c.7,0,1.1-.2,1.1-.7s-.4-.7-1.1-.7H53v1.4Z"/><path class="cls-2" d="M58.6,23.6V17.1h4.9v1.2H60v1.4h3.1V21H60v1.3h3.6v1.3Z"/><path class="cls-2" d="M65,23.6V17.1h3a2.9,2.9,0,0,1,1.9.6,2.5,2.5,0,0,1,.5,1.6,1.9,1.9,0,0,1-1.3,2l1.6,2.3H69l-1.5-2.1H66.4v2.1Zm1.4-3.3h1.5a1.1,1.1,0,0,0,.8-.3.7.7,0,0,0,.3-.6c0-.4-.1-.6-.3-.7a1.6,1.6,0,0,0-.9-.3H66.4v1.9Z"/><path class="cls-2" d="M71.9,23.6V17.1h1.4v6.5Z"/><path class="cls-2" d="M75.1,23.6V17.1h1.3l3.1,4v-4h1.4v6.5H79.7l-3.1-4.2v4.2Z"/><path class="cls-2" d="M82.6,23.6V17.1h2.5a3.5,3.5,0,0,1,2.5.9,2.8,2.8,0,0,1,.9,2.3,3.2,3.2,0,0,1-.9,2.3,3.7,3.7,0,0,1-2.5.9H82.6ZM84,22.3h1.1a1.8,1.8,0,0,0,2-1.9,2.7,2.7,0,0,0-.5-1.5,2.5,2.5,0,0,0-1.5-.5H84Z"/><path class="cls-2" d="M95.6,22.8a3.3,3.3,0,0,1-2.5,1,3,3,0,0,1-2.4-1,3.4,3.4,0,0,1-1.1-2.4A3.2,3.2,0,0,1,90.7,18a3.1,3.1,0,0,1,2.4-1,3.2,3.2,0,0,1,2.5,1,3.1,3.1,0,0,1,1,2.4A3.3,3.3,0,0,1,95.6,22.8Zm-3.8-1a1.4,1.4,0,0,0,1.4.6,1.8,1.8,0,0,0,1.5-.6,2.2,2.2,0,0,0,.5-1.4,2.2,2.2,0,0,0-.6-1.5,2,2,0,0,0-1.5-.6,1.8,1.8,0,0,0-1.4.6,2.1,2.1,0,0,0-.5,1.5A1.5,1.5,0,0,0,91.8,21.8Z"/></svg>