<svg id="Layer_1" data-name="Layer 1" xmlns="http://www.w3.org/2000/svg" width="193.2" height="80" viewBox="0 0 193.2 80"><title>new-cp-logo-white-big</title><path d="M48,30.8A27,27,0,0,0,25.4,42.2a8.5,8.5,0,0,0,2.2,8.6,9.4,9.4,0,0,0,12,.8L45,46l.8-.6H46a6.5,6.5,0,0,1,4-1.2,6.2,6.2,0,0,1,6.2,6.2h0a5.4,5.4,0,0,1-1,3h0a28,28,0,0,1-21,9.2,30.1,30.1,0,0,1-12.6-2.8c2,15,14.4,20.2,16,20.2A6.3,6.3,0,0,0,43,73.8c0-7.2,4.8-8.8,7.4-8.8C58.6,65,67,60.4,67,50A19,19,0,0,0,48.2,30.8Z" style="fill:#fff;opacity:0.4000000059604645;isolation:isolate"/><path d="M49.8,43.8a7.2,7.2,0,0,0-4,1.2h-.2l-.8.6-5.4,5.6a9.3,9.3,0,0,1-12-.8A8.7,8.7,0,0,1,25.2,42c.2-.8,8.4-9.6,8.4-9.6a13.6,13.6,0,0,0-10-22.6A12.9,12.9,0,0,0,15,13l-.6.4A28.4,28.4,0,1,0,55,53.2h0a6.1,6.1,0,0,0,.8-3,6,6,0,0,0-5.6-6.4Z" style="fill:#fff"/><path d="M12.4,6.2A6,6,0,0,0,6.6,0H6.4A6.2,6.2,0,0,0,0,6v.2a6,6,0,0,0,6,6h.2a6,6,0,0,0,6.2-5.8Z" style="fill:#fff"/><g style="opacity:0.6000000238418579"><path d="M76,63.2v-10h3.6a5.4,5.4,0,0,1,2.8.8,3.5,3.5,0,0,1,1,2.4,3.1,3.1,0,0,1-1,2.4,4.8,4.8,0,0,1-2.8,1H77.2v3.4Zm1.2-4.6h2.2a2.7,2.7,0,0,0,2.2-.8,2.3,2.3,0,0,0,.6-1.6,1.8,1.8,0,0,0-.6-1.4,3.6,3.6,0,0,0-2-.6H77.2Z" style="fill:#fff"/><path d="M89.2,63.2v-10h4.2a4.2,4.2,0,0,1,2.8,1,2.4,2.4,0,0,1,.6,2c0,1,0,1.4-.6,2l-1.8,1,3,4H96l-2.8-3.8h-3v3.8Zm1-5h3.2l1.8-.6a1.8,1.8,0,0,0,.6-1.4c0-.8-.2-1.2-.6-1.4a3,3,0,0,0-1.8-.6H90.2Z" style="fill:#fff"/><path d="M103.2,63.2v-10h1.2v10Z" style="fill:#fff"/><path d="M111,63.2v-10h1.2l3.6,5.4,3.6-5.4h1.2v10h-1.2V55l-3.6,5.4h0L112.2,55v8.2Z" style="fill:#fff"/><path d="M126.2,63.2l4.4-10h1l4.6,10H135l-1.2-2.6h-5.6l-.8,2.6Zm2.8-3.6h4.4l-2.2-5.2Z" style="fill:#fff"/><path d="M143.2,63.2v-9H140v-1h7.8v1h-3.2v9Z" style="fill:#fff"/><path d="M151.6,63.2l4.4-10h1.2l4.4,10h-1.2l-1.2-2.6h-5.6l-1,2.6Zm2.8-3.6h4.4l-2.2-5.2Z" style="fill:#fff"/><path d="M167.4,63.2v-10h1.2l3.6,5.4,3.4-5.4h1.2v10h-1.2V55l-3.4,5.4h0L168.6,55v8.2Z" style="fill:#fff"/><path d="M182.6,63.2l4.4-10h1l4.4,10h-1.2L190,60.6h-5.4l-1.2,2.6Zm2.6-3.6h4.4l-2.2-5.2Z" style="fill:#fff"/></g><path d="M82.2,47.6a6.8,6.8,0,0,1-4.8-11.4,6.6,6.6,0,0,1,5-2,5.5,5.5,0,0,1,2.8.4,6.3,6.3,0,0,1,2.4,1.6l-1.8,2L84.2,37l-1.6-.4a3.6,3.6,0,0,0-2.8,1.2,5.4,5.4,0,0,0-1,3,4.2,4.2,0,0,0,1,2.8,3.3,3.3,0,0,0,2.8,1.2h1.8l1.8-1.2,1.8,2a6.3,6.3,0,0,1-2.4,1.6A8,8,0,0,1,82.2,47.6Z" style="fill:#fff"/><path d="M93.6,47.2v-5l-5-8H92l3,5.2,3.2-5.2h3.2l-5,7.8v5.2Z" style="fill:#fff"/><path d="M103.6,47.2v-13h6c1.6,0,2.8.2,3.4,1.2a2.3,2.3,0,0,1,1,2.2,3.1,3.1,0,0,1-1.8,2.8l2,1.2a6.6,6.6,0,0,1,.6,2,3.4,3.4,0,0,1-1.4,2.8,6.6,6.6,0,0,1-3.6.8Zm2.6-7.6H109c1.4,0,2-.6,2-1.4a1.3,1.3,0,0,0-.4-1l-1.4-.4h-3Zm0,5h3.4c1.4,0,2.2-.4,2.2-1.4s-.8-1.4-2.2-1.4H106v2.8Z" style="fill:#fff"/><path d="M117.2,47.2v-13H127v2.4h-7v2.8h6.2V42H120v2.6h7.2v2.6Z" style="fill:#fff"/><path d="M130,47.2v-13h6a5.8,5.8,0,0,1,3.8,1.2,5.3,5.3,0,0,1,1,3.2,3.8,3.8,0,0,1-2.6,4l3.2,4.6H138L135,43h-2.2v4.2Zm2.8-6.6h3a2.3,2.3,0,0,0,1.6-.6,1.4,1.4,0,0,0,.6-1.2c0-.8-.2-1.2-.6-1.4a3,3,0,0,0-1.8-.6h-2.8Z" style="fill:#fff"/><path d="M143.8,47.2v-13h2.8v13Z" style="fill:#fff"/><path d="M150.2,47.2v-13h2.6l6.2,8v-8h2.8v13h-2.4l-6.2-8.4v8.4Z" style="fill:#fff"/><path d="M165.2,47.2v-13h5a7.2,7.2,0,0,1,5,1.8,5.8,5.8,0,0,1,1.8,4.6,6.5,6.5,0,0,1-1.8,4.6,7.7,7.7,0,0,1-5,1.8h-5Zm2.8-2.6h2.2a3.6,3.6,0,0,0,4-3.2v-.6a5.4,5.4,0,0,0-1-3,5.4,5.4,0,0,0-3-1H168Z" style="fill:#fff"/><path d="M191.2,45.6a6.6,6.6,0,0,1-5,2,5.9,5.9,0,0,1-4.8-2,6.3,6.3,0,0,1,0-9.6,6.2,6.2,0,0,1,4.8-2,6.3,6.3,0,0,1,5,2,6.2,6.2,0,0,1,2,4.8A6.7,6.7,0,0,1,191.2,45.6Zm-7.6-2a2.8,2.8,0,0,0,2.8,1.2,3.5,3.5,0,0,0,3-1.2,4.8,4.8,0,0,0,1-2.8,4.1,4.1,0,0,0-4.2-4.2,3.6,3.6,0,0,0-2.8,1.2,4.1,4.1,0,0,0-1,3A3,3,0,0,0,183.6,43.6Z" style="fill:#fff"/></svg>