<svg id="Layer_1" data-name="Layer 1" xmlns="http://www.w3.org/2000/svg" viewBox="0 0 16 24"><defs><style>.cls-1{fill:#41479b;}.cls-2{fill:#f5f5f5;}.cls-3{fill:#ff4b55;}</style></defs><title>united-kingdom</title><path class="cls-1" d="M15.7,17.2H.3c-.2,0-.3-.1-.3-.2V7c0-.1.1-.2.3-.2H15.7c.2,0,.3.1.3.2V17C16,17.1,15.9,17.2,15.7,17.2Z"/><path class="cls-2" d="M16,7c0-.1-.1-.2-.3-.2H14.5L9.4,10.1V6.8H6.6v3.3L1.5,6.8H.3c-.2,0-.3.1-.3.2v.7l4.4,2.9H0v2.8H4.4L0,16.3V17c0,.1.1.2.3.2H1.5l5.1-3.3v3.3H9.4V13.9l5.1,3.3h1.2c.2,0,.3-.1.3-.2v-.7l-4.4-2.9H16V10.6H11.6L16,7.7Z"/><polygon class="cls-3" points="16 11.2 8.8 11.2 8.8 6.8 7.2 6.8 7.2 11.2 0 11.2 0 12.8 7.2 12.8 7.2 17.2 8.8 17.2 8.8 12.8 16 12.8 16 11.2"/><path class="cls-3" d="M5.6,13.4,0,17c0,.1.1.2.3.2H.7l5.9-3.8Z"/><path class="cls-3" d="M10.8,13.4h-1l6,3.8A.2.2,0,0,0,16,17v-.3Z"/><path class="cls-3" d="M0,7.3l5.1,3.3h1L.2,6.8A.2.2,0,0,0,0,7Z"/><path class="cls-3" d="M10.4,10.6,16,7c0-.1-.1-.2-.3-.2h-.4L9.4,10.6Z"/></svg>